<?xml version="1.0" encoding="utf-8"?>
<!-- Generator: Adobe Illustrator 19.0.0, SVG Export Plug-In . SVG Version: 6.00 Build 0)  -->
<svg version="1.1" id="Capa_1" xmlns="http://www.w3.org/2000/svg" xmlns:xlink="http://www.w3.org/1999/xlink" x="0px" y="0px"
	 viewBox="0 0 100 100" style="enable-background:new 0 0 100 100;" xml:space="preserve">
<style type="text/css">
	.st0{fill:#95102E;}
</style>
<path id="XMLID_9_" class="st0" d="M50.5,0.5c-27.6,0-50,22.4-50,50s22.4,50,50,50s50-22.4,50-50S78.1,0.5,50.5,0.5z M89.6,50.5
	c0,10.4-4.1,20.2-11.5,27.6S60.9,89.6,50.5,89.6c-8,0-15.7-2.4-22.3-7l54.4-54.4C87.2,34.7,89.6,42.4,89.6,50.5z M20.2,75.1
	c-5.7-7-8.8-15.7-8.8-24.7c0-21.6,17.5-39.1,39.1-39.1c9,0,17.7,3.1,24.7,8.8L20.2,75.1z"/>
</svg>
