<?xml version="1.0" encoding="utf-8"?>
<!-- Generator: Adobe Illustrator 19.0.0, SVG Export Plug-In . SVG Version: 6.00 Build 0)  -->
<svg version="1.1" id="Capa_1" xmlns="http://www.w3.org/2000/svg" xmlns:xlink="http://www.w3.org/1999/xlink" x="0px" y="0px"
	 viewBox="0 0 100 100" style="enable-background:new 0 0 100 100;" xml:space="preserve">
<style type="text/css">
	.st0{fill:#95102E;}
</style>
<g id="XMLID_1_">
	<path id="XMLID_2_" class="st0" d="M46,47v17h3.4c2.6,0,4.7-0.8,6.2-2.3c1.5-1.6,2.2-3.7,2.2-6.4c0-2.6-0.7-4.6-2.2-6.1
		C54.1,47.8,52,47,49.3,47H46z"/>
	<path id="XMLID_8_" class="st0" d="M23,47v8h2.3c3.2,0,4.8-1.2,4.8-4s-1.6-4-4.8-4H23z"/>
	<path id="XMLID_17_" class="st0" d="M89,35h-2v-8.2c0-2.9-0.9-5.6-2.8-7.7L69.8,3.5C67.6,1.1,64.6,0,61.4,0H21c-3.8,0-7,2.6-7,6.3
		V35h-2c-3.2,0-6,2.9-6,6.1V70c0,3.2,2.9,6,6,6h2v16.7c0,3.8,3.3,7.3,7,7.3h59.5c3.8,0,6.5-3.6,6.5-7.3V76h2c3.2,0,6-2.8,6-6V41.1
		C95,37.9,92.1,35,89,35z M83,54L83,54v5l0,0h-9v10h-5V42h14h1v5h-1h-9v7H83z M19,6.3C19,5,19.8,4,21,4h40.4C62,4,62.5,4.1,63,4.2
		c-0.1,0.2,0,0.5,0,0.7v17.9c0,1.9,1.4,3.2,3.3,3.2h16.5l0.1,0.1c0,0.2,0.1,0.5,0.1,0.7V35H19V6.3z M64.1,55.2
		c0,4.2-1.3,7.6-3.9,10.1c-2.6,2.5-6.1,3.8-10.4,3.8H40V42h9.8C59.3,42,64.1,46.5,64.1,55.2z M36.4,50.6c0,2.7-1,5.1-2.9,6.8
		C31.6,59,29,60,25.8,60H23v9h-4.1H17V42h1.9h7.4C33.1,42,36.4,44.9,36.4,50.6z M83,92.7c0,1.3-1.2,2.3-2.5,2.3H21c-1.3,0-2-1-2-2.3
		V76h64V92.7z"/>
</g>
</svg>
