<?xml version="1.0" encoding="utf-8"?>
<!-- Generator: Adobe Illustrator 19.0.0, SVG Export Plug-In . SVG Version: 6.00 Build 0)  -->
<svg version="1.1" id="Capa_1" xmlns="http://www.w3.org/2000/svg" xmlns:xlink="http://www.w3.org/1999/xlink" x="0px" y="0px"
	 viewBox="0 0 100 100" style="enable-background:new 0 0 100 100;" xml:space="preserve">
<style type="text/css">
	.st0{fill:#95102E;}
</style>
<g id="XMLID_7_">
	<path id="XMLID_10_" class="st0" d="M12.2,57.1h0.2c0.8-0.1,1.6-0.4,2.2-1L23,48c0.7-0.7,1.1-1.6,1.1-2.5c0-1-0.3-1.9-1-2.6
		c-1.4-1.4-3.7-1.5-5.1-0.1l-2,1.9c1.9-11.5,9.4-21.2,20.2-26c8.5-3.7,17.9-3.9,26.5-0.6C71.4,21.5,78.2,28,82,36.5
		c0.4,0.9,1.1,1.6,2,1.9c0.9,0.3,1.9,0.3,2.8-0.1c1.8-0.8,2.7-2.9,1.8-4.8c-4.5-10.2-12.7-18.1-23.2-22.2c-10.4-3.9-21.8-3.7-32,0.8
		C19.9,18,10.7,30.4,8.7,44.8l-2.2-2.3c-1.4-1.4-3.7-1.5-5.1-0.1C0.7,43.1,0.3,44,0.3,45s0.3,1.9,1,2.6L9.4,56l0,0l0.1,0.1l0.1,0.3
		L10,57h0.1c0.6,0,1.2,0.3,1.8,0.3C12.1,57.3,12.2,57.1,12.2,57.1z"/>
	<path id="XMLID_12_" class="st0" d="M99.3,53.5L91,45c-0.7-0.8-1.7-1.2-2.8-1.1h-0.1H88c-0.8,0.1-1.6,0.5-2.2,1l-8.3,8.2
		c-1.4,1.4-1.4,3.7,0,5.1c0.7,0.7,1.6,1.1,2.5,1.1c1,0,1.9-0.4,2.6-1l1.8-1.7c-2,11.3-9.5,21-20.2,25.7c-4.4,2-9.1,2.9-13.9,2.9
		C36.5,85.1,24,77,18.5,64.4c-0.8-1.8-2.9-2.6-4.8-1.8c-0.9,0.4-1.6,1.1-1.9,2c-0.3,0.9-0.3,1.9,0.1,2.8c6.7,15.2,21.8,25,38.4,25
		c5.8,0,11.5-1.2,16.8-3.6c13.5-5.9,22.7-18.3,24.6-32.7l2.4,2.4c1.4,1.4,3.7,1.5,5.1,0.1C100.7,57.2,100.7,54.9,99.3,53.5z"/>
</g>
</svg>
