<?xml version="1.0" encoding="utf-8"?>
<!-- Generator: Adobe Illustrator 19.0.0, SVG Export Plug-In . SVG Version: 6.00 Build 0)  -->
<svg version="1.1" id="Capa_1" xmlns="http://www.w3.org/2000/svg" xmlns:xlink="http://www.w3.org/1999/xlink" x="0px" y="0px"
	 viewBox="0 0 100 100" style="enable-background:new 0 0 100 100;" xml:space="preserve">
<style type="text/css">
	.st0{fill:#95102E;}
</style>
<g id="XMLID_4_">
	<path id="XMLID_2_" class="st0" d="M85.7,63.7v22.8H15.8V63.7H2.4v29.6c0,3.7,3,6.7,6.7,6.7h83.3c3.7,0,6.7-3,6.7-6.7V63.7H85.7z"
		/>
	<path id="XMLID_1_" class="st0" d="M49.5,61.5L30.3,38.2c0,0-2.9-2.8,0.2-2.8s10.8,0,10.8,0s0-1.9,0-4.7c0-8.2,0-23,0-29.1
		c0,0-0.4-1.6,2.1-1.6s13.5,0,15.3,0s1.7,1.4,1.7,1.4c0,5.9,0,21.3,0,29.2c0,2.6,0,4.2,0,4.2s6.1,0,10,0c3.8,0,1,2.9,1,2.9
		S55,59.4,52.8,61.7C51.1,63.3,49.5,61.5,49.5,61.5z"/>
</g>
</svg>
