<?xml version="1.0" encoding="utf-8"?>
<!-- Generator: Adobe Illustrator 19.0.0, SVG Export Plug-In . SVG Version: 6.00 Build 0)  -->
<svg version="1.1" id="Capa_1" xmlns="http://www.w3.org/2000/svg" xmlns:xlink="http://www.w3.org/1999/xlink" x="0px" y="0px"
	 viewBox="0 0 100 100" style="enable-background:new 0 0 100 100;" xml:space="preserve">
<style type="text/css">
	.st0{fill:#95102E;}
</style>
<path id="XMLID_7_" class="st0" d="M88,35h-1v-8.3c0-2.9-1.2-5.6-3.1-7.7L69.3,3.4C67.1,1,64,0,60.8,0H20.4C16.6,0,14,2.5,14,6.2V35
	h-3c-3.2,0-6,2.8-6,6v28.9c0,3.2,2.9,6.1,6,6.1h3v16.6c0,3.8,2.6,7.4,6.4,7.4h59.5c3.8,0,7.1-3.7,7.1-7.4V76h1c3.2,0,6-2.9,6-6.1V41
	C94,37.8,91.1,35,88,35z M18,6.2C18,4.9,19.1,4,20.4,4h40.4c0.5,0,0.9,0,1.4,0.1C62.1,4.4,62,4.5,62,4.8v17.9c0,1.9,1.7,4.3,3.6,4.3
	H82c0,0-0.1-0.5-0.1-0.3V35H18V6.2z M62.3,46L62.3,46c-0.4,3-0.7,3-0.9,3.7L55,68h-4.9l-6.4-18.1c-0.2-0.5-0.5-0.9-0.8-3.9h-0.2
	c0.2,4,0.3,6,0.3,8v14h-5V41h8.3l5.5,16.5c0.4,1.3,0.8,3.5,1,4.5h0.1c0.3-1,0.7-3.4,1.1-4.5L59.4,41H68v27h-6V52.8
	C62,51.1,62.1,49,62.3,46z M9.5,68L18,54.5L10.2,41h3.2h4.2l0.4,1.7v-0.1l3.5,7.2c0.3,0.6,0.5,1.1,0.7,2.1h0.1
	c0.1,0,0.4-1.7,0.8-2.7l4.3-8.3h6.7l-8,13.4L34.3,68h-7.2l-4.6-8c-0.2-0.3-0.4-1-0.5-1h-0.1c-0.1,0-0.2,0.7-0.6,1.6l-3.3,6l0,0
	L16.7,68h-3.3H9.5z M82,92.6c0,1.3-0.8,2.4-2.1,2.4H20.4c-1.3,0-2.4-1.2-2.4-2.4V76h64V92.6z M90,68h-3.5H82h-8V41h7v22h1h4.5H90V68
	z"/>
</svg>
